<?xml version="1.0" encoding="utf-8"?>
<!-- Generator: Adobe Illustrator 19.2.1, SVG Export Plug-In . SVG Version: 6.00 Build 0)  -->
<svg version="1.1" xmlns="http://www.w3.org/2000/svg" xmlns:xlink="http://www.w3.org/1999/xlink" x="0px" y="0px"
	 viewBox="0 0 612 792" style="enable-background:new 0 0 612 792;" xml:space="preserve">
<style type="text/css">
	.st0{fill:none;stroke:#000000;stroke-miterlimit:10;}
</style>
<g id="cortex">
	<path class="st0" d="M317.1,273.7c-51.9,18.1-161.9,66.2-131.4,137.6c27.5,64.2,131.8,70.4,188.9,66.9c30.7-1.9,47,0.1,67.1-23.6
		c22.4-26.4,35.1-66.1,28.7-100.4C460.2,299.6,368.1,256,317.1,273.7z"/>
</g>
<g id="s1">
	<path class="st0" d="M313.5,330.9c-3.7,9.6-4.9,20-6.2,30.2c-1.2,9.6-1.7,20.9,5.6,27.2c7.3,6.3,19.1,3.9,26.5-2.4
		c5-4.2,8.8-10,10.6-16.3c1.1-3.9,1.6-7.9,2-11.9c1.6-15.4,3.3-30.8,4.9-46.2c0.7-6.2,1.1-13.2-2.8-18c-8.8-10.9-21.2-1.1-24.5,8.7
		C325.9,312.9,317.6,320,313.5,330.9z"/>
</g>
<g id="v1">
	<path class="st0" d="M416.2,351.7c-1.9,8.5-2,17.4-0.2,26c2.2,10.6,7.6,20.9,16.6,26.9s21.9,6.5,30.2-0.4c8.2-6.9,8-21.5,7.6-31.2
		c-0.3-8-1.1-16.2-3.9-23.7c-1.4-3.8-3.3-7.4-5.3-11c-3.7-7-19.8-34.6-31.1-24.5c-4,3.6-5.2,12.9-7,17.7
		C420.6,338.1,417.8,344.7,416.2,351.7z"/>
</g>
<g id="a1">
	<path class="st0" d="M379.3,398.4c-23.5,3-29,39.6-0.8,40.3C397.6,439.1,421.8,393,379.3,398.4C374.4,399,387.3,397.4,379.3,398.4z
		"/>
</g>
<g id="_x33_mm">
	<line class="st0" x1="267" y1="513" x2="365.7" y2="513"/>
</g>
</svg>
