# Blender v2.79 (sub 0) OBJ File: ''
# www.blender.org
o Icosphere
v 0.614933 1.400521 0.792937
v 1.543725 1.861529 0.967230
v 1.266925 1.589585 -0.010008
v 0.747221 0.676993 0.041554
v 0.702826 0.384937 1.050666
v 1.195096 1.117022 1.622757
v 2.250053 1.422913 0.323554
v 1.757783 0.690828 -0.248537
v 1.409154 -0.053679 0.406989
v 1.685954 0.218264 1.384228
v 2.205658 1.130856 1.332666
v 2.337946 0.407329 0.581282
v 0.846909 1.598836 0.339561
v 1.009607 1.758679 0.913963
v 1.392840 1.869810 0.442005
v 1.350620 1.592043 1.401717
v 0.804689 1.321072 1.299269
v 0.541435 1.062430 0.369866
v 0.924664 1.173557 -0.102094
v 0.515342 0.890766 0.963005
v 0.593096 0.465485 0.521352
v 0.856352 0.724127 1.450762
v 1.944615 1.600176 1.231210
v 1.739697 1.162567 1.616518
v 1.808010 1.612001 0.063660
v 1.970710 1.771848 0.638067
v 1.213182 0.645282 -0.242298
v 1.518660 1.181692 -0.272610
v 0.982169 0.036001 0.736152
v 1.008264 0.207673 0.143009
v 1.434219 0.626158 1.646830
v 1.144869 0.195849 1.310560
v 2.359782 1.342365 0.852868
v 2.096527 1.083723 -0.076542
v 1.602259 0.215807 -0.027497
v 1.560039 -0.061961 0.932214
v 2.028214 0.634293 1.476314
v 2.437537 0.917083 0.411215
v 2.411443 0.745420 1.004354
v 2.148190 0.486778 0.074950
v 1.943272 0.049171 0.460256
v 2.105970 0.209014 1.034658
vn -0.6690 0.7431 -0.0173
vn -0.2119 0.8699 0.4454
vn -0.8514 0.4719 -0.2292
vn -0.9805 0.1961 0.0136
vn -0.8780 0.2968 0.3756
vn 0.1522 0.8082 0.5689
vn 0.0377 0.8446 -0.5341
vn -0.5223 -0.0595 -0.8507
vn -0.7539 -0.6546 0.0567
vn -0.3370 -0.1184 0.9340
vn 0.3938 0.8782 0.2715
vn 0.0867 0.5766 -0.8124
vn -0.4897 -0.4357 -0.7552
vn -0.5390 -0.7596 0.3640
vn 0.0071 0.0524 0.9986
vn 0.9357 0.3217 -0.1450
vn 0.5822 -0.1523 -0.7987
vn 0.2119 -0.8699 -0.4454
vn 0.3366 -0.8394 0.4266
vn 0.7839 -0.1030 0.6123
vn 0.8514 -0.4719 0.2292
vn 0.7551 -0.4007 0.5188
vn 0.5189 -0.5683 0.6386
vn 0.6690 -0.7431 0.0173
vn 0.4210 -0.8976 0.1305
vn 0.1955 -0.9781 -0.0716
vn 0.6855 -0.6349 -0.3565
vn 0.4512 -0.6994 -0.5544
vn 0.3897 -0.4903 -0.7796
vn 0.8780 -0.2968 -0.3756
vn 0.8039 -0.0800 -0.5894
vn 0.8331 0.2209 -0.5070
vn 0.9805 -0.1961 -0.0136
vn 0.9918 0.1046 0.0739
vn 0.9130 0.1728 0.3695
vn 0.5223 0.0595 0.8507
vn 0.2758 -0.1030 0.9557
vn 0.2573 -0.4058 0.8770
vn -0.0377 -0.8446 0.5341
vn -0.2648 -0.9070 0.3274
vn -0.1789 -0.9832 0.0359
vn -0.1522 -0.8082 -0.5689
vn -0.2161 -0.5863 -0.7808
vn 0.0255 -0.4286 -0.9031
vn 0.3370 0.1184 -0.9340
vn 0.3546 0.4159 -0.8374
vn 0.5880 0.4916 -0.6424
vn 0.7539 0.6546 -0.0567
vn 0.6586 0.7146 0.2358
vn 0.7312 0.5057 0.4578
vn -0.0867 -0.5766 0.8124
vn -0.3546 -0.4159 0.8374
vn -0.5880 -0.4916 0.6424
vn -0.3938 -0.8782 -0.2715
vn -0.6586 -0.7146 -0.2358
vn -0.7312 -0.5057 -0.4578
vn -0.0071 -0.0524 -0.9986
vn -0.2758 0.1030 -0.9557
vn -0.2573 0.4058 -0.8770
vn 0.5390 0.7596 -0.3640
vn 0.2648 0.9070 -0.3274
vn 0.1789 0.9832 -0.0359
vn 0.4897 0.4357 0.7552
vn 0.2161 0.5863 0.7808
vn -0.0255 0.4286 0.9031
vn -0.5822 0.1523 0.7987
vn -0.8039 0.0800 0.5894
vn -0.8331 -0.2209 0.5070
vn -0.9357 -0.3217 0.1450
vn -0.9918 -0.1046 -0.0739
vn -0.9130 -0.1728 -0.3695
vn -0.7839 0.1030 -0.6123
vn -0.7551 0.4007 -0.5188
vn -0.5189 0.5683 -0.6386
vn -0.3897 0.4903 0.7796
vn -0.4512 0.6994 0.5544
vn -0.6855 0.6349 0.3565
vn -0.3366 0.8394 -0.4266
vn -0.4210 0.8976 -0.1305
vn -0.1955 0.9781 0.0716
s off
f 1//1 14//1 13//1
f 2//2 14//2 16//2
f 1//3 13//3 18//3
f 1//4 18//4 20//4
f 1//5 20//5 17//5
f 2//6 16//6 23//6
f 3//7 15//7 25//7
f 4//8 19//8 27//8
f 5//9 21//9 29//9
f 6//10 22//10 31//10
f 2//11 23//11 26//11
f 3//12 25//12 28//12
f 4//13 27//13 30//13
f 5//14 29//14 32//14
f 6//15 31//15 24//15
f 7//16 33//16 38//16
f 8//17 34//17 40//17
f 9//18 35//18 41//18
f 10//19 36//19 42//19
f 11//20 37//20 39//20
f 39//21 42//21 12//21
f 39//22 37//22 42//22
f 37//23 10//23 42//23
f 42//24 41//24 12//24
f 42//25 36//25 41//25
f 36//26 9//26 41//26
f 41//27 40//27 12//27
f 41//28 35//28 40//28
f 35//29 8//29 40//29
f 40//30 38//30 12//30
f 40//31 34//31 38//31
f 34//32 7//32 38//32
f 38//33 39//33 12//33
f 38//34 33//34 39//34
f 33//35 11//35 39//35
f 24//36 37//36 11//36
f 24//37 31//37 37//37
f 31//38 10//38 37//38
f 32//39 36//39 10//39
f 32//40 29//40 36//40
f 29//41 9//41 36//41
f 30//42 35//42 9//42
f 30//43 27//43 35//43
f 27//44 8//44 35//44
f 28//45 34//45 8//45
f 28//46 25//46 34//46
f 25//47 7//47 34//47
f 26//48 33//48 7//48
f 26//49 23//49 33//49
f 23//50 11//50 33//50
f 31//51 32//51 10//51
f 31//52 22//52 32//52
f 22//53 5//53 32//53
f 29//54 30//54 9//54
f 29//55 21//55 30//55
f 21//56 4//56 30//56
f 27//57 28//57 8//57
f 27//58 19//58 28//58
f 19//59 3//59 28//59
f 25//60 26//60 7//60
f 25//61 15//61 26//61
f 15//62 2//62 26//62
f 23//63 24//63 11//63
f 23//64 16//64 24//64
f 16//65 6//65 24//65
f 17//66 22//66 6//66
f 17//67 20//67 22//67
f 20//68 5//68 22//68
f 20//69 21//69 5//69
f 20//70 18//70 21//70
f 18//71 4//71 21//71
f 18//72 19//72 4//72
f 18//73 13//73 19//73
f 13//74 3//74 19//74
f 16//75 17//75 6//75
f 16//76 14//76 17//76
f 14//77 1//77 17//77
f 13//78 15//78 3//78
f 13//79 14//79 15//79
f 14//80 2//80 15//80
